<?xml version="1.0" encoding="UTF-8" standalone="no"?>
<svg width="41px" height="21px" viewBox="0 0 41 21" version="1.1" xmlns="http://www.w3.org/2000/svg" xmlns:xlink="http://www.w3.org/1999/xlink" xmlns:sketch="http://www.bohemiancoding.com/sketch/ns">
    <!-- Generator: Sketch 3.3.3 (12072) - http://www.bohemiancoding.com/sketch -->
    <title>bubble-back</title>
    <desc>Created with Sketch.</desc>
    <defs></defs>
    <g id="Page-4" stroke="none" stroke-width="1" fill="none" fill-rule="evenodd" sketch:type="MSPage">
        <g id="Artboard-1" sketch:type="MSArtboardGroup" transform="translate(-301.000000, -511.000000)">
            <g id="bubble-back" sketch:type="MSLayerGroup" transform="translate(295.000000, 490.000000)">
                <rect id="Rectangle-66" sketch:type="MSShapeGroup" x="0" y="0" width="60" height="60"></rect>
                <circle id="Oval-51" fill="#CCCCCC" sketch:type="MSShapeGroup" cx="44" cy="31" r="3"></circle>
                <circle id="Oval-51-Copy" fill="#CCCCCC" sketch:type="MSShapeGroup" cx="34" cy="31" r="3"></circle>
                <path d="M25.8571664,30.7857045 C25.8571664,29.9129356 25.2795987,29.1428454 24.3554905,29.1428454 L15.3197654,29.1428454 L19.0803726,25.3822382 C19.3884086,25.0742021 19.5680964,24.6506525 19.5680964,24.2142681 C19.5680964,23.7778836 19.3884086,23.354334 19.0803726,23.0462979 L18.1177598,22.09652 C17.8097237,21.7884839 17.399009,21.6087962 16.9626245,21.6087962 C16.5262401,21.6087962 16.1026904,21.7884839 15.7946544,22.09652 L7.43917565,30.4391639 C7.14397441,30.7472 6.96428669,31.1707496 6.96428669,31.607134 C6.96428669,32.0435185 7.14397441,32.4670681 7.43917565,32.7622693 L15.7946544,41.1305829 C16.1026904,41.4257841 16.5262401,41.6054719 16.9626245,41.6054719 C17.399009,41.6054719 17.8225586,41.4257841 18.1177598,41.1305829 L19.0803726,40.1551353 C19.3884086,39.8599341 19.5680964,39.4363844 19.5680964,39 C19.5680964,38.5636156 19.3884086,38.1400659 19.0803726,37.8448647 L15.3197654,34.0714227 L24.3554905,34.0714227 C25.2795987,34.0714227 25.8571664,33.3013325 25.8571664,32.4285636 L25.8571664,30.7857045 Z" id="arrow" fill="#CCCCCC" sketch:type="MSShapeGroup"></path>
            </g>
        </g>
    </g>
</svg>