<?xml version="1.0" encoding="UTF-8" standalone="no"?>
<svg width="21px" height="41px" viewBox="0 0 21 41" version="1.1" xmlns="http://www.w3.org/2000/svg" xmlns:xlink="http://www.w3.org/1999/xlink" xmlns:sketch="http://www.bohemiancoding.com/sketch/ns">
    <!-- Generator: Sketch 3.3.3 (12072) - http://www.bohemiancoding.com/sketch -->
    <title>bubble-drill</title>
    <desc>Created with Sketch.</desc>
    <defs></defs>
    <g id="Page-4" stroke="none" stroke-width="1" fill="none" fill-rule="evenodd" sketch:type="MSPage">
        <g id="Artboard-1" sketch:type="MSArtboardGroup" transform="translate(-597.000000, -664.000000)">
            <g id="bubble-drill" sketch:type="MSLayerGroup" transform="translate(606.500000, 684.000000) rotate(-90.000000) translate(-606.500000, -684.000000) translate(575.000000, 651.000000)">
                <rect id="Rectangle-66" sketch:type="MSShapeGroup" x="0" y="0" width="63" height="66"></rect>
                <circle id="Oval-51" fill="#CCCCCC" sketch:type="MSShapeGroup" cx="48" cy="33" r="3"></circle>
                <circle id="Oval-51-Copy" fill="#CCCCCC" sketch:type="MSShapeGroup" cx="38" cy="33" r="3"></circle>
                <path d="M29.8571664,32.7857045 C29.8571664,31.9129356 29.2795987,31.1428454 28.3554905,31.1428454 L19.3197654,31.1428454 L23.0803726,27.3822382 C23.3884086,27.0742021 23.5680964,26.6506525 23.5680964,26.2142681 C23.5680964,25.7778836 23.3884086,25.354334 23.0803726,25.0462979 L22.1177598,24.09652 C21.8097237,23.7884839 21.399009,23.6087962 20.9626245,23.6087962 C20.5262401,23.6087962 20.1026904,23.7884839 19.7946544,24.09652 L11.4391757,32.4391639 C11.1439744,32.7472 10.9642867,33.1707496 10.9642867,33.607134 C10.9642867,34.0435185 11.1439744,34.4670681 11.4391757,34.7622693 L19.7946544,43.1305829 C20.1026904,43.4257841 20.5262401,43.6054719 20.9626245,43.6054719 C21.399009,43.6054719 21.8225586,43.4257841 22.1177598,43.1305829 L23.0803726,42.1551353 C23.3884086,41.8599341 23.5680964,41.4363844 23.5680964,41 C23.5680964,40.5636156 23.3884086,40.1400659 23.0803726,39.8448647 L19.3197654,36.0714227 L28.3554905,36.0714227 C29.2795987,36.0714227 29.8571664,35.3013325 29.8571664,34.4285636 L29.8571664,32.7857045 Z" id="arrow" fill="#CCCCCC" sketch:type="MSShapeGroup"></path>
            </g>
        </g>
    </g>
</svg>