<?xml version="1.0" encoding="UTF-8" standalone="no"?>
<svg width="66px" height="30px" viewBox="0 0 66 30" version="1.1" xmlns="http://www.w3.org/2000/svg" xmlns:xlink="http://www.w3.org/1999/xlink" xmlns:sketch="http://www.bohemiancoding.com/sketch/ns">
    <!-- Generator: Sketch 3.0.4 (8053) - http://www.bohemiancoding.com/sketch -->
    <title>partition icon@1x</title>
    <desc>Created with Sketch.</desc>
    <defs></defs>
    <g id="waterfall" stroke="none" stroke-width="1" fill="none" fill-rule="evenodd" sketch:type="MSPage">
        <g id="search" sketch:type="MSLayerGroup" transform="translate(-11.000000, -12.000000)" fill="#CCCCCC">
            <g id="partition-icon" transform="translate(11.000000, 12.000000)" sketch:type="MSShapeGroup">
                <rect id="Rectangle-15" x="51" y="0" width="15" height="30"></rect>
                <rect id="Rectangle-16" x="34" y="0" width="15" height="14"></rect>
                <rect id="Rectangle-19" x="34" y="16" width="15" height="14"></rect>
                <rect id="Rectangle-17" x="17" y="0" width="15" height="6"></rect>
                <rect id="Rectangle-20" x="17" y="8" width="15" height="6"></rect>
                <rect id="Rectangle-22" x="17" y="16" width="15" height="6"></rect>
                <rect id="Rectangle-21" x="17" y="24" width="15" height="6"></rect>
                <rect id="Rectangle-18" x="0" y="0" width="15" height="2"></rect>
                <rect id="Rectangle-23" x="0" y="4" width="15" height="2"></rect>
                <rect id="Rectangle-24" x="0" y="8" width="15" height="2"></rect>
                <rect id="Rectangle-25" x="0" y="12" width="15" height="2"></rect>
                <rect id="Rectangle-26" x="0" y="16" width="15" height="2"></rect>
                <rect id="Rectangle-27" x="0" y="20" width="15" height="2"></rect>
                <rect id="Rectangle-28" x="0" y="24" width="15" height="2"></rect>
                <rect id="Rectangle-29" x="0" y="28" width="15" height="2"></rect>
            </g>
        </g>
    </g>
</svg>