<?xml version="1.0" encoding="utf-8"?>
<!-- Generator: Adobe Illustrator 17.1.0, SVG Export Plug-In . SVG Version: 6.00 Build 0)  -->
<!DOCTYPE svg PUBLIC "-//W3C//DTD SVG 1.1//EN" "http://www.w3.org/Graphics/SVG/1.1/DTD/svg11.dtd">
<svg version="1.1" id="Capa_1" xmlns="http://www.w3.org/2000/svg" xmlns:xlink="http://www.w3.org/1999/xlink" x="0px" y="0px"
	 viewBox="500 46.9 500 406.1" enable-background="new 500 46.9 500 406.1" xml:space="preserve">
<g>
	<g>
		<path fill="#428BCA" d="M1000,95c-18.4,8.2-38.1,13.7-58.9,16.2c21.2-12.7,37.4-32.8,45.1-56.7c-19.9,11.7-41.8,20.3-65.2,24.9
			c-18.7-20-45.3-32.4-74.9-32.4c-56.6,0-102.6,45.9-102.6,102.5c0,8,0.9,15.9,2.7,23.4c-85.2-4.3-160.8-45.1-211.4-107.2
			C526,80.8,521,98.4,521,117.2c0,35.6,18.1,67,45.6,85.4c-16.8-0.6-32.6-5.2-46.5-12.9v1.3c0,49.7,35.4,91.1,82.3,100.6
			c-8.6,2.3-17.7,3.6-27,3.6c-6.6,0-13-0.7-19.3-1.9c13.1,40.8,50.9,70.4,95.8,71.2c-35.1,27.5-79.3,43.8-127.4,43.8
			c-8.3,0-16.4-0.5-24.5-1.4c45.4,29.2,99.3,46.1,157.2,46.1c188.7,0,291.8-156.3,291.8-291.8l-0.3-13.3
			C968.8,133.6,986.3,115.5,1000,95z"/>
	</g>
</g>
</svg>
